<!-- Generator: Adobe Illustrator 23.0.2, SVG Export Plug-In  -->
<svg version="1.1" xmlns="http://www.w3.org/2000/svg" xmlns:xlink="http://www.w3.org/1999/xlink" x="0px" y="0px"
	 width="205.17px" height="65.88px" viewBox="0 0 205.17 65.88" style="enable-background:new 0 0 205.17 65.88;"
	 xml:space="preserve">
<style type="text/css">
	.st0{fill:#005180;}
	.st1{fill:#333333;}
</style>
<defs>
</defs>
<g>
	<g>
		<polygon class="st0" points="10.14,65.88 0,65.88 0,45.61 10.14,40.54 		"/>
		<polygon class="st0" points="0,10.14 0,5.07 10.14,5.07 10.14,10.14 0,15.2 		"/>
		<polygon class="st0" points="15.2,25.34 15.2,30.41 20.27,30.41 20.27,65.88 30.41,65.88 30.41,30.41 30.41,25.34 30.41,20.27 		
			"/>
		<polygon class="st0" points="65.88,15.2 50.68,20.27 50.68,30.41 50.68,65.88 60.82,65.88 60.82,30.41 65.88,30.41 		"/>
		<polygon class="st0" points="30.41,15.2 30.41,25.34 35.48,25.34 35.48,65.88 45.61,65.88 45.61,25.34 45.61,15.2 45.61,10.14 		
			"/>
		<polygon class="st0" points="45.61,0 30.41,0 30.41,10.14 45.61,5.07 		"/>
		<polygon class="st0" points="10.14,35.48 0,40.54 0,20.27 10.14,15.2 		"/>
	</g>
	<g>
		<g>
			<path class="st1" d="M79.7,21.34h2.64l4.8,8.03l4.8-8.03h2.66l-6.33,9.98v6.73h-2.26v-6.73L79.7,21.34z"/>
			<path class="st1" d="M111.22,23.73c1.11,1.48,1.66,3.37,1.66,5.68c0,2.5-0.63,4.57-1.9,6.22c-1.49,1.94-3.61,2.91-6.36,2.91
				c-2.57,0-4.59-0.85-6.06-2.55c-1.31-1.64-1.97-3.71-1.97-6.21c0-2.26,0.56-4.19,1.68-5.8c1.44-2.06,3.57-3.09,6.39-3.09
				C107.62,20.89,109.8,21.84,111.22,23.73z M109.22,34.38c0.89-1.43,1.34-3.08,1.34-4.94c0-1.97-0.51-3.55-1.54-4.75
				c-1.03-1.2-2.43-1.8-4.21-1.8c-1.73,0-3.14,0.59-4.23,1.78c-1.09,1.19-1.64,2.94-1.64,5.25c0,1.85,0.47,3.41,1.41,4.69
				c0.94,1.27,2.46,1.91,4.56,1.91C106.89,36.53,108.33,35.82,109.22,34.38z"/>
			<path class="st1" d="M116.51,21.34h2.67l8.33,13.5v-13.5h2.16v16.71h-2.54l-8.46-13.49v13.49h-2.16V21.34z"/>
			<path class="st1" d="M145.39,21.82c1.64,0.87,2.64,2.4,3,4.58h-2.24c-0.27-1.22-0.82-2.11-1.66-2.67
				c-0.84-0.56-1.9-0.84-3.17-0.84c-1.51,0-2.79,0.58-3.83,1.74c-1.04,1.16-1.55,2.89-1.55,5.19c0,1.99,0.43,3.6,1.28,4.85
				c0.85,1.25,2.25,1.87,4.18,1.87c1.48,0,2.7-0.44,3.67-1.31c0.97-0.88,1.47-2.29,1.49-4.25h-5.23v-1.88h7.34v8.94h-1.46
				l-0.55-2.15c-0.75,0.84-1.42,1.43-2,1.75c-0.98,0.56-2.22,0.84-3.73,0.84c-1.95,0-3.62-0.64-5.02-1.92
				c-1.53-1.61-2.29-3.81-2.29-6.62c0-2.8,0.75-5.02,2.24-6.68c1.42-1.58,3.26-2.37,5.52-2.37
				C142.92,20.91,144.26,21.22,145.39,21.82z"/>
			<path class="st1" d="M169.54,38.05h-2.72l5.91-8.57l-5.54-8.14h2.82l4.22,6.39l4.18-6.39h2.69l-5.54,8.14l5.81,8.57h-2.8
				l-4.45-6.87L169.54,38.05z"/>
			<path class="st1" d="M185.11,21.34h2.29v16.71h-2.29V21.34z"/>
			<path class="st1" d="M192.01,21.34h2.67l8.33,13.5v-13.5h2.16v16.71h-2.54l-8.46-13.49v13.49h-2.16V21.34z"/>
		</g>
		<g>
			<path class="st1" d="M81.09,46.68h6.68c2.27,0,4.03,0.82,5.28,2.45c1.11,1.47,1.67,3.36,1.67,5.65c0,1.77-0.33,3.38-0.99,4.81
				c-1.16,2.53-3.15,3.8-5.98,3.8h-6.66V46.68z M87.32,61.46c0.75,0,1.36-0.08,1.85-0.24c0.86-0.3,1.56-0.86,2.11-1.71
				c0.44-0.67,0.75-1.54,0.95-2.59c0.11-0.63,0.17-1.21,0.17-1.75c0-2.07-0.4-3.68-1.21-4.82c-0.81-1.15-2.1-1.72-3.89-1.72h-3.93
				v12.83H87.32z"/>
			<path class="st1" d="M98.96,46.68h12.13v2.05h-9.92v5.07h9.17v1.93h-9.17v5.67h10.09v1.99h-12.3V46.68z"/>
			<path class="st1" d="M116.69,58c0.05,0.95,0.27,1.72,0.65,2.31c0.72,1.11,2,1.66,3.82,1.66c0.82,0,1.56-0.12,2.24-0.36
				c1.3-0.47,1.95-1.31,1.95-2.53c0-0.91-0.28-1.56-0.83-1.95c-0.56-0.38-1.43-0.71-2.62-0.99l-2.19-0.51
				c-1.43-0.33-2.45-0.7-3.04-1.1c-1.03-0.7-1.54-1.74-1.54-3.13c0-1.5,0.51-2.73,1.52-3.7s2.44-1.44,4.3-1.44
				c1.7,0,3.15,0.42,4.34,1.27c1.19,0.85,1.79,2.2,1.79,4.06h-2.13c-0.11-0.89-0.34-1.58-0.7-2.06c-0.66-0.87-1.79-1.31-3.37-1.31
				c-1.28,0-2.2,0.28-2.76,0.84c-0.56,0.56-0.84,1.21-0.84,1.96c0,0.82,0.33,1.42,0.99,1.8c0.43,0.24,1.41,0.55,2.94,0.91l2.27,0.53
				c1.09,0.26,1.94,0.61,2.53,1.06c1.03,0.78,1.54,1.91,1.54,3.4c0,1.85-0.66,3.17-1.97,3.97c-1.31,0.8-2.84,1.19-4.58,1.19
				c-2.03,0-3.61-0.53-4.76-1.59c-1.15-1.05-1.71-2.48-1.69-4.29H116.69z"/>
			<path class="st1" d="M132.2,46.68h2.29v16.71h-2.29V46.68z"/>
			<path class="st1" d="M150.21,47.16c1.64,0.87,2.64,2.4,3,4.58h-2.24c-0.27-1.22-0.82-2.11-1.66-2.67
				c-0.84-0.56-1.9-0.84-3.17-0.84c-1.51,0-2.79,0.58-3.83,1.74c-1.04,1.16-1.55,2.89-1.55,5.19c0,1.99,0.43,3.6,1.28,4.85
				c0.85,1.25,2.25,1.87,4.18,1.87c1.48,0,2.7-0.44,3.67-1.31c0.97-0.88,1.47-2.29,1.49-4.25h-5.23v-1.88h7.34v8.94h-1.46
				l-0.55-2.15c-0.75,0.84-1.42,1.43-2,1.75c-0.98,0.56-2.22,0.84-3.73,0.84c-1.95,0-3.62-0.64-5.02-1.92
				c-1.53-1.61-2.29-3.81-2.29-6.62c0-2.8,0.75-5.02,2.24-6.68c1.42-1.58,3.26-2.37,5.52-2.37
				C147.75,46.25,149.08,46.56,150.21,47.16z"/>
			<path class="st1" d="M158.14,46.68h2.67l8.33,13.5v-13.5h2.16v16.71h-2.54l-8.46-13.49v13.49h-2.16V46.68z"/>
		</g>
	</g>
</g>
</svg>
